<svg enable-background="new 0 0 32 32" height="512" viewBox="0 0 32 32" width="512" xmlns="http://www.w3.org/2000/svg"><path d="m26 32h-20c-3.314 0-6-2.686-6-6v-20c0-3.314 2.686-6 6-6h20c3.314 0 6 2.686 6 6v20c0 3.314-2.686 6-6 6z" fill="#f5e6fe"/><path d="m12.908 15.68c-.232 0-.457-.121-.58-.337-.182-.32-.07-.727.249-.909l6.186-3.527c.319-.184.727-.071.91.249.182.32.07.727-.249.909l-6.186 3.527c-.105.06-.218.088-.33.088z" fill="#d9a4fc"/><path d="m19.092 21.18c-.112 0-.225-.028-.329-.088l-6.186-3.527c-.32-.182-.432-.59-.249-.909.182-.32.589-.433.91-.249l6.186 3.527c.32.182.432.59.249.909-.124.216-.349.337-.581.337z" fill="#d9a4fc"/><g fill="#be63f9"><circle cx="20.667" cy="21.333" r="2.667"/><circle cx="20.667" cy="10.667" r="2.667"/><circle cx="11.333" cy="16" r="2.667"/></g></svg>